<svg width="58" height="58" viewBox="0 0 58 58" fill="none" xmlns="http://www.w3.org/2000/svg">
<g id="Frame" clip-path="url(#clip0_146_5282)">
<g id="Group">
<path id="Vector" d="M47.125 58H10.875C7.99077 58 5.22467 56.8542 3.18521 54.8148C1.14576 52.7753 0 50.0092 0 47.125L0 10.875C0 7.99077 1.14576 5.22467 3.18521 3.18521C5.22467 1.14576 7.99077 0 10.875 0L47.125 0C50.0092 0 52.7753 1.14576 54.8148 3.18521C56.8542 5.22467 58 7.99077 58 10.875V47.125C58 50.0092 56.8542 52.7753 54.8148 54.8148C52.7753 56.8542 50.0092 58 47.125 58Z" fill="white"/>
<path id="Vector_2" opacity="0.5" d="M43.4981 19.0312C43.4981 18.1501 43.1481 17.3051 42.525 16.682C41.902 16.059 41.0569 15.7089 40.1758 15.7089H22.6543C21.7732 15.7089 20.9282 16.059 20.3051 16.682C19.6821 17.3051 19.332 18.1501 19.332 19.0312V19.3339H43.4981V19.0312ZM19.332 20.541V22.9571H35.3418C36.8638 22.9586 38.323 23.5638 39.3992 24.64C40.4754 25.7161 41.0806 27.1753 41.082 28.6973V32.5035C41.7785 32.3061 42.3914 31.8866 42.8275 31.3088C43.2636 30.731 43.4991 30.0266 43.4981 29.3027V20.5429L19.332 20.541Z" fill="#B47A4D"/>
<path id="Vector_3" d="M35.3438 25.375H17.8223C16.9415 25.376 16.097 25.7263 15.4741 26.3491C14.8513 26.972 14.501 27.8165 14.5 28.6973V38.9688C14.5 40.8012 15.9899 42.2911 17.8223 42.2911H35.3438C36.2246 42.2901 37.0691 41.9398 37.6919 41.3169C38.3148 40.6941 38.6651 39.8496 38.6661 38.9688V28.6973C38.6651 27.8165 38.3148 26.972 37.6919 26.3491C37.0691 25.7263 36.2246 25.376 35.3438 25.375ZM17.8223 30.5098C17.8223 29.1776 18.9062 28.0938 20.2384 28.0938H22.0509C23.3831 28.0938 24.4669 29.1776 24.4669 30.5098V32.3223C24.4669 33.6545 23.3831 34.7384 22.0509 34.7384H20.2384C19.5979 34.7374 18.9839 34.4826 18.531 34.0297C18.0781 33.5768 17.8233 32.9628 17.8223 32.3223V30.5098ZM34.1348 39.5723H19.0312C18.719 39.5602 18.4235 39.4276 18.2068 39.2024C17.9901 38.9772 17.8691 38.6768 17.8691 38.3643C17.8691 38.0518 17.9901 37.7514 18.2068 37.5261C18.4235 37.3009 18.719 37.1683 19.0312 37.1562H34.1348C34.4471 37.1683 34.7426 37.3009 34.9592 37.5261C35.1759 37.7514 35.2969 38.0518 35.2969 38.3643C35.2969 38.6768 35.1759 38.9772 34.9592 39.2024C34.7426 39.4276 34.4471 39.5602 34.1348 39.5723Z" fill="#B47A4D"/>
</g>
</g>
<defs>
<clipPath id="clip0_146_5282">
<rect width="58" height="58" fill="white"/>
</clipPath>
</defs>
</svg>
