<svg width="58" height="58" viewBox="0 0 58 58" fill="none" xmlns="http://www.w3.org/2000/svg">
<g id="Frame" clip-path="url(#clip0_140_5857)">
<g id="Group">
<path id="Vector" d="M47.125 58H10.875C7.99077 58 5.22467 56.8542 3.18521 54.8148C1.14576 52.7753 0 50.0092 0 47.125L0 10.875C0 7.99077 1.14576 5.22467 3.18521 3.18521C5.22467 1.14576 7.99077 0 10.875 0L47.125 0C50.0092 0 52.7753 1.14576 54.8148 3.18521C56.8542 5.22467 58 7.99077 58 10.875V47.125C58 50.0092 56.8542 52.7753 54.8148 54.8148C52.7753 56.8542 50.0092 58 47.125 58Z" fill="#F7F6F4"/>
<path id="Vector_2" opacity="0.5" d="M33.979 16.8309L20.8202 23.5679L15.5875 20.9942L28.5143 14.6105C28.6608 14.5381 28.8221 14.5005 28.9855 14.5005C29.149 14.5005 29.3102 14.5381 29.4568 14.6105L33.979 16.8309ZM42.398 20.9942L29.0073 27.6279L23.9921 25.1575L23.2689 24.7895L36.4422 18.0525L37.1672 18.4204L42.398 20.9942Z" fill="#B47A4D"/>
<g id="Group_2">
<path id="Vector_3" d="M27.9342 29.5402L27.9198 43.5001L15.0927 36.8066C14.9142 36.7113 14.7649 36.5695 14.6606 36.3962C14.5562 36.223 14.5007 36.0246 14.5 35.8224V22.9065L19.9357 25.5836V30.2906C19.9357 30.8942 20.4287 31.3944 21.0232 31.3944C21.6177 31.3944 22.1107 30.8942 22.1107 30.2906V26.6729L22.8357 27.0263L27.9342 29.5402ZM43.4855 22.921L30.1092 29.5257L30.0948 43.4856L43.5 36.4857L43.4855 22.921Z" fill="#B47A4D"/>
</g>
</g>
</g>
<defs>
<clipPath id="clip0_140_5857">
<rect width="58" height="58" fill="white"/>
</clipPath>
</defs>
</svg>
