<svg width="58" height="58" viewBox="0 0 58 58" fill="none" xmlns="http://www.w3.org/2000/svg">
<g id="Frame" clip-path="url(#clip0_146_5274)">
<g id="Group">
<path id="Vector" d="M47.125 58H10.875C7.99077 58 5.22467 56.8542 3.18521 54.8148C1.14576 52.7753 0 50.0092 0 47.125L0 10.875C0 7.99077 1.14576 5.22467 3.18521 3.18521C5.22467 1.14576 7.99077 0 10.875 0L47.125 0C50.0092 0 52.7753 1.14576 54.8148 3.18521C56.8542 5.22467 58 7.99077 58 10.875V47.125C58 50.0092 56.8542 52.7753 54.8148 54.8148C52.7753 56.8542 50.0092 58 47.125 58Z" fill="white"/>
<path id="Vector_2" opacity="0.5" d="M33.9774 16.8309L20.8186 23.5679L15.5859 20.9942L28.5127 14.6105C28.6592 14.5381 28.8205 14.5005 28.9839 14.5005C29.1474 14.5005 29.3086 14.5381 29.4552 14.6105L33.9774 16.8309ZM42.3964 20.9942L29.0057 27.6279L23.9905 25.1575L23.2673 24.7895L36.4406 18.0525L37.1656 18.4204L42.3964 20.9942Z" fill="#B47A4D"/>
<g id="Group_2">
<path id="Vector_3" d="M27.9342 29.5401L27.9198 43.5L15.0927 36.8064C14.9142 36.7112 14.7649 36.5694 14.6606 36.3961C14.5562 36.2228 14.5007 36.0245 14.5 35.8222V22.9064L19.9357 25.5834V30.2905C19.9357 30.8941 20.4287 31.3943 21.0232 31.3943C21.6177 31.3943 22.1107 30.8941 22.1107 30.2905V26.6727L22.8357 27.0262L27.9342 29.5401ZM43.4855 22.9209L30.1092 29.5256L30.0948 43.4855L43.5 36.4856L43.4855 22.9209Z" fill="#B47A4D"/>
</g>
</g>
</g>
<defs>
<clipPath id="clip0_146_5274">
<rect width="58" height="58" fill="white"/>
</clipPath>
</defs>
</svg>
