<svg width="58" height="58" viewBox="0 0 58 58" fill="none" xmlns="http://www.w3.org/2000/svg">
<g clip-path="url(#clip0_140_5713)">
<path d="M47.125 58H10.875C7.99077 58 5.22467 56.8542 3.18521 54.8148C1.14576 52.7753 0 50.0092 0 47.125L0 10.875C0 7.99077 1.14576 5.22467 3.18521 3.18521C5.22467 1.14576 7.99077 0 10.875 0L47.125 0C50.0092 0 52.7753 1.14576 54.8148 3.18521C56.8542 5.22467 58 7.99077 58 10.875V47.125C58 50.0092 56.8542 52.7753 54.8148 54.8148C52.7753 56.8542 50.0092 58 47.125 58Z" fill="white"/>
<path d="M31.7188 14.5H17.8223C15.9863 14.5 14.5 15.9863 14.5 17.8223V36.5509C14.5 38.3888 15.9863 39.875 17.8223 39.875H27.6588C26.5628 38.3877 25.9738 36.5876 25.9786 34.7402C25.98 32.4174 26.9034 30.1901 28.5458 28.5477C30.1883 26.9052 32.4156 25.9818 34.7384 25.9804C34.8344 25.9804 34.9432 25.9804 35.0411 25.9931V17.8223C35.0411 15.9863 33.5548 14.5 31.7188 14.5ZM19.3339 19.3339H24.1679C24.8331 19.3339 25.3768 19.8777 25.3768 20.5429C25.3768 21.2081 24.8313 21.75 24.1661 21.75H19.3321C18.6688 21.75 18.125 21.2063 18.125 20.5411C18.125 19.8759 18.6687 19.3339 19.3339 19.3339ZM25.375 31.4161H19.3339C18.6687 31.4161 18.125 30.8723 18.125 30.2071C18.125 29.5419 18.6687 29 19.3339 29H25.375C26.0402 29 26.5839 29.5437 26.5839 30.2089C26.5839 30.8741 26.0402 31.4161 25.375 31.4161ZM30.2089 26.5839H19.3339C18.6687 26.5839 18.125 26.0402 18.125 25.375C18.125 24.7098 18.6687 24.1661 19.3339 24.1661H30.2089C30.8741 24.1661 31.4179 24.7098 31.4179 25.375C31.4164 25.6952 31.2886 26.0019 31.0622 26.2283C30.8358 26.4547 30.5291 26.5825 30.2089 26.5839Z" fill="#D5B8A0"/>
<path d="M34.7402 41.0839C31.2421 41.0839 28.3965 38.2383 28.3965 34.7402C28.3965 31.242 31.2421 28.3964 34.7402 28.3964C38.2384 28.3964 41.084 31.242 41.084 34.7402C41.084 38.2383 38.2384 41.0839 34.7402 41.0839ZM34.7402 30.8125C32.5743 30.8125 30.8125 32.5742 30.8125 34.7402C30.8125 36.9061 32.5743 38.6679 34.7402 38.6679C36.9062 38.6679 38.6679 36.9061 38.6679 34.7402C38.6665 33.6989 38.2522 32.7007 37.5159 31.9645C36.7797 31.2282 35.7815 30.8139 34.7402 30.8125Z" fill="#B47A4D"/>
<path d="M42.2911 43.5C42.1325 43.5003 41.9755 43.4693 41.8289 43.4086C41.6824 43.3479 41.5494 43.2589 41.4374 43.1465L37.5097 39.2189C37.305 38.988 37.1961 38.6877 37.2054 38.3793C37.2146 38.0708 37.3413 37.7776 37.5595 37.5594C37.7776 37.3412 38.0709 37.2146 38.3793 37.2053C38.6877 37.1961 38.9881 37.3049 39.2189 37.5097L43.1466 41.4374C43.3144 41.6069 43.4285 41.8222 43.4744 42.0563C43.5203 42.2903 43.496 42.5328 43.4046 42.7531C43.3132 42.9734 43.1588 43.1619 42.9607 43.2948C42.7626 43.4276 42.5296 43.499 42.2911 43.5Z" fill="#B47A4D"/>
</g>
<defs>
<clipPath id="clip0_140_5713">
<rect width="58" height="58" fill="white"/>
</clipPath>
</defs>
</svg>
