<svg width="48" height="48" viewBox="0 0 48 48" fill="none" xmlns="http://www.w3.org/2000/svg">
<rect width="48" height="48" rx="24" fill="#222222" fill-opacity="0.6"/>
<path fill-rule="evenodd" clip-rule="evenodd" d="M17.6689 16.76C17.6958 16.5328 17.7752 16.3151 17.9011 16.124C18.0269 15.933 18.1956 15.774 18.3937 15.6597C18.5918 15.5454 18.8139 15.479 19.0422 15.4656C19.2706 15.4523 19.4989 15.4925 19.7089 15.583C20.7709 16.037 23.1509 17.116 26.1709 18.859C29.1919 20.603 31.3169 22.126 32.2399 22.817C33.0279 23.408 33.0299 24.58 32.2409 25.173C31.3269 25.86 29.2279 27.363 26.1709 29.129C23.1109 30.895 20.7589 31.961 19.7069 32.409C18.8009 32.796 17.7869 32.209 17.6689 31.232C17.5309 30.09 17.2729 27.497 17.2729 23.995C17.2729 20.495 17.5299 17.903 17.6689 16.76Z" fill="#F7F6F4"/>
</svg>
