<?xml version="1.0" encoding="utf-8"?><svg viewBox="0 0 502.66 502.66" xmlns="http://www.w3.org/2000/svg" xmlns:xlink="http://www.w3.org/1999/xlink"><style>:root>svg{display:none}:root>svg:target{display:block}</style><svg viewBox="0 0 24 24" id="arrow-right" xmlns="http://www.w3.org/2000/svg"><path d="M4.929 12H19.07M12 4.929L19.07 12 12 19.071" stroke-width="2" stroke-linecap="round" stroke-linejoin="round"/></svg><svg viewBox="0 0 24 24" id="arrow-right-yellow" xmlns="http://www.w3.org/2000/svg"><path d="M4.929 12H19.07M12 4.929L19.071 12 12 19.071"/></svg><svg viewBox="0 0 24 24" id="arrow-up-right" xmlns="http://www.w3.org/2000/svg"><path d="M7 17L17 7M7 7h10v10"/></svg><svg viewBox="0 0 24 24" id="arrow-up-right-1" xmlns="http://www.w3.org/2000/svg"><path d="M4.929 12H19.07M12 4.929L19.071 12 12 19.071" stroke-width="2" stroke-linecap="round" stroke-linejoin="round"/></svg><svg viewBox="0 0 502.664 502.664" id="icon" xmlns="http://www.w3.org/2000/svg"><path d="M153.821 358.226L0 274.337v-46.463l153.821-83.414v54.574L46.636 250.523l107.185 53.431v54.272zm26.273 29.358L282.103 115.08h32.227L212.084 387.584h-31.99zm168.749-29.358v-54.272l107.164-52.999-107.164-52.59v-53.927l153.821 83.522v46.183l-153.821 84.083z"/></svg><svg viewBox="0 0 24 24" id="minus" xmlns="http://www.w3.org/2000/svg"><path opacity=".7" d="M20.485 12H3.515"/></svg><svg viewBox="0 0 24 24" id="plus" xmlns="http://www.w3.org/2000/svg"><path d="M20.485 12H3.515M12 3.515v16.97"/></svg><svg viewBox="0 0 24 24" id="telegram" xmlns="http://www.w3.org/2000/svg"><g clip-path="url(#ha)"><path d="M15.924 17.505l1.969-9.282c.08-.393.033-.674-.14-.844-.175-.17-.405-.2-.69-.093L5.49 11.746c-.259.098-.435.21-.529.334-.094.125-.105.244-.033.355.071.112.214.199.428.261l2.96.925 6.87-4.326c.188-.125.33-.152.43-.08.062.044.044.11-.055.2l-5.557 5.023-.215 3.053c.206 0 .406-.098.603-.295l1.446-1.392 3 2.21c.572.32.933.151 1.085-.51zM24 12a11.73 11.73 0 01-.95 4.66c-.635 1.483-1.488 2.76-2.559 3.831-1.071 1.072-2.348 1.924-3.83 2.558A11.73 11.73 0 0112 24c-1.625 0-3.179-.317-4.66-.95-1.483-.635-2.76-1.488-3.831-2.559-1.071-1.071-1.924-2.348-2.558-3.83A11.73 11.73 0 010 12c0-1.625.317-3.179.95-4.66.635-1.483 1.488-2.76 2.559-3.831C4.58 2.438 5.857 1.585 7.339.95A11.73 11.73 0 0112 0c1.625 0 3.179.317 4.66.95 1.483.635 2.76 1.488 3.831 2.559 1.072 1.071 1.924 2.348 2.558 3.83A11.73 11.73 0 0124 12z"/></g><defs><clipPath id="ha"><path d="M0 0h24v24H0z"/></clipPath></defs></svg><svg viewBox="0 0 24 24" id="whatsapp" xmlns="http://www.w3.org/2000/svg"><path d="M12.001 1.001C18.076 1.001 23 5.925 23 12s-4.924 10.999-10.999 10.999a10.949 10.949 0 01-5.533-1.49l-5.462 1.49 1.487-5.464A10.947 10.947 0 011.002 12c0-6.075 4.924-10.999 10.999-10.999zm-3.748 5.83l-.22.008a1.057 1.057 0 00-.41.11A1.43 1.43 0 007.3 7.2c-.132.124-.207.232-.287.337a3.003 3.003 0 00-.623 1.845c.003.54.143 1.064.363 1.554.45.992 1.19 2.043 2.167 3.016.236.235.467.47.715.689a10.39 10.39 0 004.224 2.25l.624.096c.204.01.407-.004.612-.014.32-.017.633-.104.916-.254a5.68 5.68 0 00.422-.242s.047-.031.137-.1c.148-.11.24-.188.363-.316.091-.095.17-.206.23-.332.087-.18.172-.522.208-.807.026-.217.018-.336.015-.41-.004-.117-.102-.24-.209-.291l-.64-.287s-.957-.417-1.542-.683a.545.545 0 00-.194-.045.529.529 0 00-.415.14c-.006-.003-.08.06-.875 1.023a.384.384 0 01-.405.143 1.585 1.585 0 01-.21-.072l-.277-.12a6.629 6.629 0 01-1.732-1.102c-.139-.121-.268-.253-.4-.381a6.925 6.925 0 01-1.121-1.395l-.065-.104a1.015 1.015 0 01-.112-.226.353.353 0 01.067-.291s.267-.293.391-.451c.121-.154.223-.304.29-.41.13-.21.17-.424.102-.59a91.763 91.763 0 00-.955-2.245c-.065-.147-.257-.253-.432-.274a4.881 4.881 0 00-.178-.017 3.723 3.723 0 00-.444.004l.221-.009.002.001z"/></svg></svg>